Coordinates
version=1
nRows=8
nColumns=33
inDegrees=yes

Units are S.I. units (second, meters, Newtons, ...)
Angles are in degrees.

endheader
time	ground_thorax_rot_x	ground_thorax_rot_y	ground_thorax_rot_z	ground_thorax_tx	ground_thorax_ty	ground_thorax_tz	clav_prot_r	clav_elev_r	scapula_abduction_r	scapula_elevation_r	scapula_upward_rot_r	scapula_winging_r	shoulder_elv_r	plane_of_elev_r	axial_rot_r	elbow_flexion_r	pro_sup_r	wrist_flex_r	wrist_dev_r	clav_prot_l	clav_elev_l	scapula_abduction_l	scapula_elevation_l	scapula_upward_rot_l	scapula_winging_l	shoulder_elv_l	plane_of_elev_l	axial_rot_l	elbow_flexion_l	pro_sup_l	wrist_flex_l	wrist_dev_l
      6.37000000	     -1.49508589	      1.21444342	     11.49493959	     -0.10452836	      1.03213798	      0.01148666	      8.46601206	    -11.19770484	     15.53267425	     -4.52819478	      1.29526401	     -2.52020319	    -27.34831005	    -77.64263808	    113.28989348	    -78.06224811	   -155.12275835	     36.78005173	    -17.83297135	     10.47931653	     -3.06602383	    -13.24097128	    -18.39449869	    -34.28037830	     -0.64973618	     62.23972015	    -29.78117276	      3.55375547	     70.41064577	     16.61749267	      3.41319097	    -24.72715860
      6.38000000	     -1.40437884	      0.95203511	     11.56885243	     -0.10490782	      1.03201781	      0.01145392	      8.32468467	    -10.83831264	     15.11693622	     -4.06518163	      0.96355321	     -2.50427474	    -28.00207726	    -78.20788389	    113.43228253	    -78.00754030	   -154.83629089	     36.95011164	    -17.92283718	     10.28704415	     -2.68832412	    -12.94766238	    -19.01190308	    -34.78263248	     -0.87953654	     61.87733401	    -30.71069476	      3.55193857	     70.99252608	     16.63165195	      3.27261991	    -24.99999983
      6.39000000	     -1.36594189	      0.78097221	     11.44031142	     -0.10479557	      1.03246102	      0.01143957	      8.12402450	    -10.56896728	     14.87950121	     -3.92075036	      1.20166695	     -2.53448855	    -30.37766669	    -78.48908914	    111.65869911	    -77.09286131	   -151.53935386	     39.27855067	    -19.84755891	      9.69143024	     -2.29514342	    -11.78270402	    -19.23603134	    -34.39227477	     -1.34111209	     61.83630961	    -32.02962295	      2.27292669	     71.34844907	     17.83383950	      1.37266598	    -24.99999983
      6.40000000	     -1.12177563	      0.62917028	     11.55810396	     -0.10526889	      1.03212336	      0.01142418	      8.06072788	    -10.14053457	     14.53200176	     -3.34287243	      0.74813498	     -2.55997563	    -31.08267182	    -78.98712679	    111.46974182	    -76.95816492	   -151.22151420	     39.42211042	    -20.00139668	      9.54097658	     -2.02609037	    -11.56919462	    -19.74841567	    -34.89642755	     -1.53933372	     61.48037927	    -32.84971964	      1.89965691	     71.66178361	     17.95880489	      1.18918879	    -24.99999983
      6.41000000	     -1.02440102	      0.64883170	     11.56328042	     -0.10514977	      1.03203156	      0.01169894	      7.90150446	     -9.68813792	     14.13374593	     -2.84259651	      0.53408855	     -2.57787149	    -32.91352001	    -78.82434033	    109.78442355	    -76.24968839	   -149.01208864	     41.00373924	    -21.03840977	      9.18517364	     -1.72311053	    -10.90058725	    -20.07506956	    -34.92145289	     -1.85262363	     61.50275603	    -33.86119769	      0.86699367	     71.72428470	     19.06943514	     -0.24090853	    -24.99999983
      6.42000000	     -0.95463388	      0.37831568	     11.62861289	     -0.10570455	      1.03234864	      0.01158405	      7.84728109	     -9.57913118	     13.90416295	     -2.63045818	      0.26240034	     -2.51953490	    -33.50473264	    -79.27608851	    109.82320744	    -75.53032590	   -148.72473570	     41.05477020	    -21.06607831	      9.06986220	     -1.52610926	    -10.76206502	    -20.51880215	    -35.42999553	     -2.01743363	     61.14309948	    -34.67338258	      0.75564514	     71.53153828	     19.19617707	     -0.37622263	    -24.99999983
      6.43000000	     -0.94220814	      0.47287136	     11.48268560	     -0.10552030	      1.03245297	      0.01170354	      7.63736095	     -9.25698266	     13.65863289	     -2.45661707	      0.54430995	     -2.56371425	    -36.24590171	    -79.02253722	    107.20554555	    -74.21549724	   -145.39714168	     43.29354997	    -22.35677151	      8.74794311	     -1.09768703	    -10.08188032	    -20.81981104	    -35.14165043	     -2.29236936	     61.08903990	    -35.44827850	     -0.54744239	     71.20156188	     21.10256533	     -2.60326319	    -24.99999983
      6.44000000	     -0.79096083	      0.31753312	     11.45767270	     -0.10567896	      1.03256308	      0.01162097	      7.56952173	     -9.10713572	     13.36080250	     -2.17072481	      0.18890242	     -2.48956735	    -36.54045235	    -79.21131829	    107.12722499	    -73.42308374	   -145.30963816	     43.17611564	    -22.35319734	      8.60809570	     -1.01796147	     -9.90377437	    -21.13617885	    -35.62064697	     -2.46093325	     60.70317501	    -36.10086626	     -0.54717948	     70.86194331	     21.15688328	     -2.62718159	    -24.99999983
